<svg width="88" height="72" viewBox="0 0 88 72" fill="none" xmlns="http://www.w3.org/2000/svg">
<g filter="url(#filter0_d_23_96)">
<path d="M82.2611 27.8755L64.8691 9.02051C63.9351 8.05051 60.4361 3.42951 58.6611 2.43551C57.3779 1.26487 55.6978 0.625716 53.9611 0.647512C53.6971 0.647512 53.4291 0.647513 53.1611 0.690513L49.7261 1.03451C49.2807 1.07844 48.8398 1.15972 48.4081 1.27751C46.2791 1.41451 38.0181 6.23451 37.2121 6.73151L7.14106 24.9525C2.88406 27.5075 1.43106 33.1615 3.89106 37.5825C4.23617 38.2076 4.65444 38.7893 5.13706 39.3155L27.6291 64.0155C27.7091 64.0955 27.7951 64.1655 27.8891 64.2195C28.5363 64.9111 29.3205 65.4603 30.1917 65.8322C31.0628 66.2041 32.0019 66.3905 32.9491 66.3795C33.2011 66.3795 33.4611 66.3795 33.7171 66.3405L37.0961 66.0005C37.9856 65.9131 38.8541 65.6765 39.6651 65.3005C39.8451 65.2255 40.0191 65.1395 40.1851 65.0375L80.6111 42.2855C84.8011 39.6175 86.1151 33.9285 83.5501 29.5735C83.1892 28.9607 82.758 28.3921 82.2651 27.8795L82.2611 27.8755Z" fill="white"/>
<path d="M78.3621 31.9136L60.9741 13.0616L58.5101 20.4686L70.5271 33.7366L50.0191 46.0296L46.5311 56.5076L77.7371 37.4116C79.3341 36.3936 79.8351 34.2216 78.8551 32.5676C78.7163 32.3327 78.5508 32.1146 78.3621 31.9176V31.9136ZM28.5021 46.4176L17.0111 33.5406L36.6041 22.0316L40.0621 11.6196L9.89406 29.9016C8.27406 30.8766 7.72006 33.0316 8.65806 34.7146C8.79006 34.9536 8.94806 35.1726 9.12906 35.3716L26.0391 53.8436L28.5021 46.4176Z" fill="#555859"/>
<path d="M33.1591 60.6435C31.7961 60.7805 31.1061 59.7705 31.6341 58.3545L48.2271 8.4025C48.3411 7.9365 48.5971 7.5205 48.9571 7.2175C49.3171 6.9145 49.7611 6.7395 50.2241 6.7195L53.6591 6.3755C55.0791 6.2355 55.7091 7.1815 55.1851 8.6645L38.5841 58.5465C38.2181 59.6655 37.5401 60.2015 36.5341 60.2995L33.1561 60.6395L33.1591 60.6435Z" fill="#1FB6FF"/>
</g>
<defs>
<filter id="filter0_d_23_96" x="0.126183" y="0.646973" width="87.3027" height="70.8689" filterUnits="userSpaceOnUse" color-interpolation-filters="sRGB">
<feFlood flood-opacity="0" result="BackgroundImageFix"/>
<feColorMatrix in="SourceAlpha" type="matrix" values="0 0 0 0 0 0 0 0 0 0 0 0 0 0 0 0 0 0 127 0" result="hardAlpha"/>
<feOffset dy="2.568"/>
<feGaussianBlur stdDeviation="1.284"/>
<feComposite in2="hardAlpha" operator="out"/>
<feColorMatrix type="matrix" values="0 0 0 0 0 0 0 0 0 0 0 0 0 0 0 0 0 0 0.19 0"/>
<feBlend mode="normal" in2="BackgroundImageFix" result="effect1_dropShadow_23_96"/>
<feBlend mode="normal" in="SourceGraphic" in2="effect1_dropShadow_23_96" result="shape"/>
</filter>
</defs>
</svg>
